# xmcd
#
# Track frame offsets: 
#        150
#        18612
#        30507
#        45580
#        60312
#        78382
#        96330
#        113215
#        126450
#        142177
#        159942
#        176502
#        195862
#        215482
#
# Disc length: 3125 seconds
#
# Revision: 0
# Processed by: cddbd v1.5.2PL0 Copyright (c) Steve Scherf et al.
# Submitted via: ExactAudioCopy v0.99pb3
#
DISCID=ba0c330e
DTITLE=Deneen McEachern - Hard Dark Love
DYEAR=2005
DGENRE=Blues
TTITLE0=Black Sky El
TTITLE1=Lover's Lament
TTITLE2=Cold Wind Blowing
TTITLE3=Need That Boy
TTITLE4=Hard Dark Love
TTITLE5=My Heart's A Loser
TTITLE6=Cold Feeling
TTITLE7=No Matter What You Do
TTITLE8=Until The Morning Light
TTITLE9=My Baby's Coming Home
TTITLE10=Bad Case Of The Blues
TTITLE11=Walk On By
TTITLE12=Been Down So Long
TTITLE13=When My Mama Was Living
EXTD=
EXTT0=
EXTT1=
EXTT2=
EXTT3=
EXTT4=
EXTT5=
EXTT6=
EXTT7=
EXTT8=
EXTT9=
EXTT10=
EXTT11=
EXTT12=
EXTT13=
PLAYORDER=
